<?xml version="1.0" encoding="utf-8"?>
<!-- Generator: Adobe Illustrator 25.1.0, SVG Export Plug-In . SVG Version: 6.00 Build 0)  -->
<svg version="1.1" xmlns="http://www.w3.org/2000/svg" xmlns:xlink="http://www.w3.org/1999/xlink" x="0px" y="0px" width="436px"
	 height="436px" viewBox="0 0 436 436" style="enable-background:new 0 0 436 436;" xml:space="preserve">
<style type="text/css">
	.st0{fill:#FFFFFF;stroke:#000000;stroke-miterlimit:10;}
	.st1{stroke:#000000;stroke-miterlimit:10;}
	.st2{fill:#FFFFFF;stroke:#000000;stroke-linecap:round;stroke-miterlimit:10;}
</style>
<g id="Rabbit">
	<path class="st0" d="M147.8,64.5c-6.2-3.5-32.5,29.6-40.6,55.4c-2.6,8.4-4.2,17.9-5.2,26.8c-3.8-16.2-10.2-33.3-20.6-38.5
		c-21.1-10.5-37.1-13.3-48,2.7S21.7,146,26,146c4.3,0,16.8-25.4,28.1-18c11.3,7.4,29.3,45.3,26.9,60.1l19.9-6.8l29.6,10
		c0,0,15.3-23,19.5-48.4C153.6,122,154,68,147.8,64.5z"/>
	<path class="st0" d="M293.5,137.8c58.5-6.4,104.8,54.4,89.6,93.1s-81.4,84.9-197.9,80.8s-75.5-82.5-45.7-105.4
		S235,144.3,293.5,137.8z"/>
	<path class="st0" d="M398.6,178.8c0,0,1.9-4.8,6.7-4.1c5.9,0.9,3.2,9.1,3.2,9.1s7.3-1.5,9.7,4.7c1.8,4.6-6.1,8.5-6.1,8.5
		s6.4,1.2,5,7c-1.5,5.9-8.8,4.1-8.8,4.1s5,4.7,0,9.4c-4.9,4.6-10.5-3.2-10.5-3.2s1.2,8.5-6.1,6.7c-7.3-1.8-7.9-12-7.9-12
		s-10.2,2.3-10.5-5.6c-0.3-7.9,6.1-7.9,6.1-7.9s-6.7-6.1-2-10c4.7-3.8,7.9-0.3,7.9-0.3s-6.1-8.3,1.5-11.7
		C394.5,170,398.6,178.8,398.6,178.8z"/>
	<path class="st0" d="M93.9,174.9c25.3-2.1,56.2,24.2,55.4,43.3s-19.1,44.1-48.4,48s-42.1,3.9-45.7-11.3S61.1,177.6,93.9,174.9z"/>
	<path class="st0" d="M327.7,272.9c16.3,3.1,31.6,54.5,3.5,71.4c-8.2,4.9-38.2,19.5-56.6,23.8c-12.9,3-25,0.4-25.4-6.2
		c-0.4-6.6,32.5-17.2,39-21.9c15.1-10.7-7.8,2.3-14.8-22.2c-7-24.6,6.2-32,6.2-32"/>
	<path class="st0" d="M202,307.2c0,0-6.6,28.9-10.9,40.6c-4.3,11.7-15.6,25.4-26.9,21.1c-11.3-4.3-5.1-20.3-2.3-30.4
		c2.7-10.1,15.6-37.9,15.6-37.9"/>
	<circle class="st1" cx="103.1" cy="208.2" r="4.7"/>
	<line class="st0" x1="70.1" y1="266.8" x2="66.6" y2="255.9"/>
	<path class="st0" d="M72.6,248.9c-3.1,1.7-5.2,4-5.9,7.4"/>
	<path class="st0" d="M66.6,256.1c-1.9-2.5-4.4-3.5-7.1-3.8"/>
	<path class="st2" d="M102,146.4c-0.9,10-1.2,18.7,0,30"/>
	<path class="st2" d="M80.8,180"/>
	<path class="st2" d="M131.9,189.7c3.8-6.3,14.8-26,18.2-46.8c3.4-20.9,3.9-74.9-2.3-78.4c-6.2-3.5-32.5,29.6-40.6,55.4
		c-2.6,8.4-4.2,17.9-5.2,26.8c-3.8-16.2-10.2-33.3-20.6-38.5c-21.1-10.5-37.1-13.3-48,2.7S21.7,146,26,146c4.3,0,16.8-25.4,28.1-18
		c9.6,6.3,24,34.5,26.7,51.9"/>
	<path class="st2" d="M100.1,182c0,0,0.1-21.6,1.9-35.3"/>
</g>
<g id="Layer_2">
</g>
</svg>
